<?xml version="1.0" encoding="UTF-8" standalone="no"?>
<svg
   height="24px"
   viewBox="0 -960 960 960"
   width="24px"
   fill="#e3e3e3"
   version="1.1"
   id="svg185"
   sodipodi:docname="blog.svg"
   inkscape:version="1.2.2 (b0a8486541, 2022-12-01)"
   xmlns:inkscape="http://www.inkscape.org/namespaces/inkscape"
   xmlns:sodipodi="http://sodipodi.sourceforge.net/DTD/sodipodi-0.dtd"
   xmlns="http://www.w3.org/2000/svg"
   xmlns:svg="http://www.w3.org/2000/svg">
  <defs
     id="defs189" />
  <sodipodi:namedview
     id="namedview187"
     pagecolor="#ffffff"
     bordercolor="#666666"
     borderopacity="1.0"
     inkscape:showpageshadow="2"
     inkscape:pageopacity="0.0"
     inkscape:pagecheckerboard="0"
     inkscape:deskcolor="#d1d1d1"
     showgrid="false"
     inkscape:zoom="37.375"
     inkscape:cx="11.986622"
     inkscape:cy="11.986622"
     inkscape:window-width="948"
     inkscape:window-height="1047"
     inkscape:window-x="5"
     inkscape:window-y="24"
     inkscape:window-maximized="1"
     inkscape:current-layer="svg185" />
  <path
     d="m490-527 37 37 217-217-37-37-217 217ZM200-200h37l233-233-37-37-233 233v37Zm355-205L405-555l167-167-29-29-219 219-56-56 218-219q24-24 56.5-24t56.5 24l29 29 50-50q12-12 28.5-12t28.5 12l93 93q12 12 12 28.5T828-678L555-405ZM270-120H120v-150l285-285 150 150-285 285Z"
     id="path183"
     style="fill:#000000" />
</svg>
