<?xml version="1.0" encoding="UTF-8" standalone="no"?>
<svg
   height="24px"
   viewBox="0 -960 960 960"
   width="24px"
   fill="#e3e3e3"
   version="1.1"
   id="svg433"
   sodipodi:docname="rpg.svg"
   inkscape:version="1.2.2 (b0a8486541, 2022-12-01)"
   xmlns:inkscape="http://www.inkscape.org/namespaces/inkscape"
   xmlns:sodipodi="http://sodipodi.sourceforge.net/DTD/sodipodi-0.dtd"
   xmlns="http://www.w3.org/2000/svg"
   xmlns:svg="http://www.w3.org/2000/svg">
  <defs
     id="defs437" />
  <sodipodi:namedview
     id="namedview435"
     pagecolor="#ffffff"
     bordercolor="#666666"
     borderopacity="1.0"
     inkscape:showpageshadow="2"
     inkscape:pageopacity="0.0"
     inkscape:pagecheckerboard="0"
     inkscape:deskcolor="#d1d1d1"
     showgrid="false"
     inkscape:zoom="37.375"
     inkscape:cx="11.986622"
     inkscape:cy="11.986622"
     inkscape:window-width="1906"
     inkscape:window-height="1047"
     inkscape:window-x="5"
     inkscape:window-y="24"
     inkscape:window-maximized="1"
     inkscape:current-layer="svg433" />
  <path
     d="M300-240q25 0 42.5-17.5T360-300q0-25-17.5-42.5T300-360q-25 0-42.5 17.5T240-300q0 25 17.5 42.5T300-240Zm0-360q25 0 42.5-17.5T360-660q0-25-17.5-42.5T300-720q-25 0-42.5 17.5T240-660q0 25 17.5 42.5T300-600Zm180 180q25 0 42.5-17.5T540-480q0-25-17.5-42.5T480-540q-25 0-42.5 17.5T420-480q0 25 17.5 42.5T480-420Zm180 180q25 0 42.5-17.5T720-300q0-25-17.5-42.5T660-360q-25 0-42.5 17.5T600-300q0 25 17.5 42.5T660-240Zm0-360q25 0 42.5-17.5T720-660q0-25-17.5-42.5T660-720q-25 0-42.5 17.5T600-660q0 25 17.5 42.5T660-600ZM200-120q-33 0-56.5-23.5T120-200v-560q0-33 23.5-56.5T200-840h560q33 0 56.5 23.5T840-760v560q0 33-23.5 56.5T760-120H200Zm0-80h560v-560H200v560Zm0-560v560-560Z"
     id="path431"
     style="fill:#000000" />
</svg>
